<svg width="256" height="256" viewBox="0 0 256 256" fill="none" xmlns="http://www.w3.org/2000/svg">
<path fill-rule="evenodd" clip-rule="evenodd" d="M129.402 210.823C123.295 210.75 119.505 209.065 115.925 207.013C108.976 203.129 102.097 199.172 95.2179 195.215C83.753 188.668 72.3114 182.098 60.8932 175.502C57.8749 173.817 54.8566 172.131 52.0488 170.153C50.2238 168.907 48.5392 167.222 47.1353 165.463C44.4679 162.092 44.2573 158.062 45.8016 154.178C47.9776 148.755 50.5748 143.479 53.1719 138.276C57.0326 130.362 61.0336 122.594 65.0347 114.753C69.7376 105.373 74.5108 95.9931 79.284 86.54C84.0572 77.0868 88.8303 67.4871 93.6737 57.9606C97.7449 49.7532 101.957 41.5458 106.098 33.3384C109.397 26.8165 112.626 20.1479 115.995 13.626C117.961 9.74213 119.786 5.63843 122.874 2.48737C125.331 -0.0774394 128.069 -0.736963 130.736 0.875205C132.14 1.75457 133.544 3.00034 134.386 4.39266C136.562 7.91012 138.598 11.5009 140.493 15.1649C143.301 20.5143 145.968 26.0104 148.706 31.4331C152.847 39.7138 156.988 47.9945 161.13 56.2752C164.359 62.7238 167.658 69.0992 170.887 75.5479C173.741 81.2638 176.619 86.9796 179.521 92.6955C182.469 98.6312 185.487 104.494 188.435 110.429C191.313 116.072 194.121 121.788 196.999 127.43C200.649 134.758 204.369 141.94 207.879 149.341C208.932 151.393 209.634 153.665 210.265 155.936C211.529 160.993 209.844 165.243 206.124 168.174C202.755 170.812 199.175 172.938 195.595 175.063C189.277 178.8 182.89 182.391 176.572 185.981C169.904 189.792 163.236 193.529 156.567 197.34C150.46 200.857 144.354 204.375 138.176 207.746C134.807 209.651 131.298 210.823 129.402 210.823ZM97.8151 145.604C100.482 147.143 103.009 148.682 105.536 150.074C112.415 154.031 119.294 157.915 126.173 161.872C127.296 162.532 128.279 162.532 129.402 161.945C135.65 158.355 141.897 154.764 148.214 151.173C151.349 149.366 154.508 147.534 157.69 145.677C155.795 140.694 128.56 87.2728 127.507 86.6865C117.61 106.252 107.712 125.892 97.8151 145.604Z" fill="#CBDDE1"/>
<path d="M235.267 256C230.929 255.709 226.521 255.563 222.253 255.053C216.516 254.47 212.247 251.12 209.449 245.948C205.041 238.082 200.983 229.996 196.994 221.911C196.015 219.872 195.525 217.468 195.315 215.21C194.825 210.184 197.344 206.688 201.052 204.211C204.831 201.662 208.749 199.404 212.667 197.146C214.836 195.981 217.075 194.888 219.454 194.087C224.772 192.193 229.04 193.504 232.398 198.311C234.847 201.808 236.876 205.668 238.835 209.456C241.564 214.555 244.153 219.726 246.742 224.971C249.541 230.579 252.339 236.261 254.998 242.015C255.628 243.399 255.908 245.147 255.978 246.677C256.258 250.756 253.879 253.888 249.821 254.762C247.512 255.272 245.063 255.49 242.684 255.636C240.235 255.781 237.716 255.709 235.267 255.709C235.267 255.806 235.267 255.903 235.267 256Z" fill="#CBDDE1"/>
<path d="M19.5659 256C16.05 255.781 11.4794 255.636 7.04935 255.053C4.02569 254.616 1.2833 253.159 0.29885 249.734C-0.123056 248.132 -0.0527382 246.31 0.228532 244.634C0.861391 240.7 2.9006 237.349 4.65855 233.852C8.24475 226.639 11.9013 219.426 15.6281 212.287C17.9486 207.842 20.2691 203.325 23.0115 199.1C26.668 193.344 32.2934 191.741 38.1298 194.728C43.8255 197.715 49.4509 200.775 54.795 204.345C60.2095 207.988 62.2487 213.306 59.5766 219.864C57.1858 225.765 54.2325 231.375 51.3495 237.057C49.5212 240.627 47.6226 244.052 45.5131 247.403C42.4191 252.284 37.9188 254.907 32.5043 255.344C28.4962 255.709 24.5584 255.781 19.5659 256Z" fill="#CBDDE1"/>
</svg>
