<svg width="256" height="99" viewBox="0 0 256 99" fill="none" xmlns="http://www.w3.org/2000/svg">
<path fill-rule="evenodd" clip-rule="evenodd" d="M39.9929 62.585C38.1054 62.5633 36.9339 62.0629 35.8276 61.4537C33.6799 60.3007 31.5538 59.1261 29.4279 57.9514C25.8845 56.008 22.3485 54.0575 18.8196 52.0996C17.8867 51.5992 16.9539 51.0989 16.0861 50.5115C15.5221 50.1417 15.0014 49.6414 14.5675 49.1193C13.7432 48.1186 13.6782 46.9221 14.1554 45.7691C14.8279 44.1593 15.6305 42.5931 16.4332 41.0485C17.6265 38.699 18.8629 36.3932 20.0995 34.0654C21.553 31.281 23.0281 28.4965 24.5034 25.6902C25.9785 22.8839 27.4537 20.0342 28.9507 17.2062C30.2088 14.7697 31.5105 12.3333 32.7904 9.89682C33.8101 7.96073 34.808 5.98111 35.8492 4.04501C36.4567 2.89204 37.0207 1.67382 37.9753 0.738401C38.7345 -0.0229887 39.5806 -0.218775 40.405 0.259813C40.8389 0.520861 41.2728 0.890678 41.533 1.304C42.2056 2.34819 42.8347 3.41414 43.4205 4.50184C44.2882 6.08988 45.1125 7.72143 45.9587 9.33122C47.2386 11.7894 48.5185 14.2476 49.7985 16.7058C50.7964 18.6202 51.816 20.5127 52.8139 22.4271C53.6962 24.1239 54.5855 25.8208 55.4823 27.5175C56.3934 29.2797 57.3262 31.0199 58.2373 32.782C59.1269 34.457 59.9946 36.1539 60.884 37.8289C62.0122 40.0044 63.1619 42.1362 64.2467 44.3333C64.572 44.9424 64.7889 45.6169 64.9842 46.2912C65.3747 47.7922 64.854 49.054 63.7042 49.9242C62.663 50.7073 61.5565 51.3382 60.4501 51.969C58.4978 53.0785 56.5235 54.1444 54.5711 55.2103C52.5102 56.3416 50.4493 57.451 48.3884 58.5823C46.501 59.6264 44.6136 60.6706 42.7046 61.6713C41.6632 62.2369 40.5786 62.585 39.9929 62.585ZM30.2306 43.224C31.0549 43.6808 31.8358 44.1375 32.617 44.5509C34.7429 45.7256 36.8689 46.8786 38.9949 48.0533C39.342 48.2491 39.6458 48.2491 39.9929 48.0751C41.9236 47.0092 43.8544 45.9431 45.8068 44.8772C46.7758 44.3406 47.7519 43.7968 48.7355 43.2457C48.1497 41.7665 39.7324 25.9078 39.4071 25.7337C36.3482 31.542 33.2894 37.3721 30.2306 43.224Z" fill="#CBDDE1"/>
<path fill-rule="evenodd" clip-rule="evenodd" d="M175.025 58.3653C175.025 64.7677 175.055 71.1701 175.025 77.5725C174.997 80.8742 174.481 84.1184 173.188 87.1905C171.066 92.301 167.477 95.7749 162.34 97.3827C156.227 99.2775 150.113 98.9904 144.172 96.5788C139.666 94.7412 136.394 91.4684 134.615 86.7312C134.241 85.7262 133.926 84.664 133.754 83.6304C133.553 82.4533 134.328 81.4771 135.447 81.4484C136.337 81.4197 137.255 81.4197 138.145 81.4197C140.441 81.4197 142.737 81.4484 145.004 81.4197C146.152 81.4197 147.042 81.7929 147.702 82.7977C149.252 85.1234 151.52 85.7262 154.074 85.6688C155.996 85.6401 157.748 85.1234 159.068 83.6304C160.244 82.3097 160.733 80.6732 160.905 78.9506C161.02 77.8023 160.962 76.6251 160.992 75.4479C160.992 75.1895 160.962 74.9599 160.905 74.7301C160.733 73.754 160.159 73.4956 159.383 74.0699C158.494 74.7014 157.69 75.4766 156.772 76.0508C154.074 77.7734 151.089 78.319 147.989 78.0606C141.646 77.5438 137.083 74.0986 134.5 68.2416C130.998 60.3751 130.998 52.3075 134.5 44.3834C136.365 40.2204 139.436 37.1484 143.684 35.6267C148.363 33.9903 152.955 34.2486 157.231 37.0336C157.92 37.4929 158.551 38.0958 159.211 38.6125C160.187 39.359 160.79 39.0719 160.962 37.8375C160.992 37.4929 161.02 37.1484 161.077 36.8038C161.22 35.9712 161.881 35.311 162.713 35.2247C163.116 35.1673 163.546 35.1673 163.947 35.1673C166.875 35.1673 169.803 35.1673 172.729 35.1673C173.045 35.1673 173.362 35.2247 173.677 35.2823C174.395 35.4258 174.825 35.9138 174.94 36.6603C175.055 37.2345 175.055 37.8662 175.055 38.469C175.074 45.0915 175.084 51.7237 175.084 58.3653C175.064 58.3653 175.045 58.3653 175.025 58.3653ZM160.992 55.8675C160.992 54.9201 160.818 53.5994 160.331 52.3362C159.24 49.4364 157.231 47.6851 154.189 47.4554C151.176 47.2258 148.735 48.5177 147.387 51.3886C145.808 54.7191 145.837 58.1643 147.616 61.4373C150.056 65.9162 156.055 66.3468 159.155 62.3273C160.503 60.576 160.992 58.4801 160.992 55.8675Z" fill="#CBDDE1"/>
<path d="M84.8753 56.212C84.8753 50.0392 84.8466 43.8377 84.8753 37.6364C84.8753 37.1196 85.0474 36.574 85.2196 36.0573C85.4205 35.4257 85.9659 35.1386 86.5973 35.0812C86.9991 35.0238 87.401 35.0238 87.8028 35.0238C90.7495 35.0238 93.696 35.0238 96.6427 35.0238C96.9297 35.0238 97.2072 35.0428 97.4751 35.0812C98.2213 35.2247 98.7954 35.799 98.9102 36.574C98.9963 37.0622 99.025 37.5503 99.0824 38.067C99.2259 39.1868 99.8572 39.5025 100.776 38.8422C101.264 38.4977 101.666 38.1244 102.125 37.7512C105.253 35.3395 108.783 34.4208 112.658 34.7079C115.987 34.9664 118.972 36.1147 121.441 38.5551C123.765 40.8519 125.086 43.7229 125.803 46.9098C126.463 49.8383 126.463 52.7955 126.463 55.7526C126.463 61.9348 126.463 68.1268 126.463 74.3281C126.463 74.8449 126.435 75.3618 126.377 75.8785C126.234 76.7685 125.775 77.2279 124.913 77.4001C124.569 77.4577 124.215 77.4864 123.851 77.4864C120.905 77.4864 117.968 77.4864 115.04 77.4864C114.906 77.4864 114.782 77.4864 114.667 77.4864C113.06 77.4001 112.514 76.826 112.428 75.1607C112.428 74.7875 112.428 74.3855 112.428 74.0123C112.428 67.6196 112.419 61.2172 112.4 54.8051C112.4 53.2835 112.17 51.8192 111.51 50.4412C110.276 47.8285 107.664 46.5079 104.708 46.9385C101.522 47.4266 99.398 49.867 99.0824 53.3409C99.025 54.0874 98.9963 54.8338 98.9963 55.5803C98.9963 62.0975 98.9963 68.5861 98.9676 75.0746C98.9866 75.3234 98.9771 75.5722 98.9389 75.8211C98.7667 76.7972 98.3074 77.2853 97.3603 77.4001C96.8723 77.4864 96.3844 77.4864 95.9253 77.4864C93.2847 77.5054 90.6347 77.5054 87.975 77.4864C87.4584 77.4864 86.913 77.4577 86.3964 77.3714C85.6788 77.2566 85.2196 76.7973 85.0761 76.0507C84.9613 75.4192 84.8753 74.7875 84.8753 74.1559C84.8466 68.1842 84.8466 62.2124 84.8466 56.2407C84.8657 56.2215 84.8753 56.212 84.8753 56.212Z" fill="#CBDDE1"/>
<path fill-rule="evenodd" clip-rule="evenodd" d="M201.833 78.0031C197.213 77.9744 192.906 76.8548 189.089 74.0699C184.526 70.682 182.029 65.9736 181.197 60.289C180.651 56.5853 180.738 52.8816 181.799 49.2642C183.665 42.8044 187.597 38.2968 193.71 36.0001C199.709 33.7605 205.737 33.9042 211.563 36.5742C217.103 39.1294 220.603 43.5795 222.182 49.6087C223.416 54.2885 223.388 59.0257 221.953 63.6768C220.087 69.8494 216.183 74.0699 210.385 76.4242C207.631 77.5438 204.789 77.9744 201.833 78.0031ZM208.779 56.2408C208.779 54.4894 208.548 52.7668 207.746 51.159C206.54 48.7474 204.646 47.3979 201.976 47.3979C199.307 47.3979 197.326 48.6899 196.237 51.159C194.715 54.5468 194.743 58.0495 196.237 61.4086C198.302 66.0023 204.33 66.4329 207.143 62.2986C208.405 60.4899 208.779 58.4227 208.779 56.2408Z" fill="#CBDDE1"/>
<path d="M228.87 56.212C228.87 49.9913 228.87 43.7708 228.87 37.5503C228.889 37.244 228.917 36.9378 228.956 36.6316C229.128 35.7127 229.616 35.196 230.506 35.0812C230.908 35.0238 231.338 35.0238 231.74 35.0238C234.667 35.0238 237.595 35.0333 240.523 35.0525C240.829 35.0525 241.125 35.0716 241.412 35.1099C242.187 35.2534 242.675 35.7127 242.79 36.5166C242.876 37.0047 242.876 37.4929 242.904 38.0096C242.934 38.4977 242.934 38.9857 242.991 39.4738C243.163 40.6223 243.765 40.852 244.656 40.1629C244.971 39.9044 245.287 39.5887 245.574 39.3016C247.698 37.2057 250.109 35.684 253.008 35.0238C253.219 34.9664 253.429 34.928 253.639 34.909C255.448 34.6505 255.763 35.5405 255.963 36.8612C256.022 37.2057 255.993 37.6077 255.993 37.9522C255.993 41.2251 255.993 44.4694 255.963 47.7137C255.963 48.1444 255.878 48.6038 255.791 49.0344C255.62 49.7808 255.102 50.2403 254.385 50.2977C253.552 50.3838 252.75 50.3551 251.917 50.4125C250.711 50.5273 249.478 50.5847 248.3 50.8431C245.115 51.5896 243.306 53.829 243.019 57.1881C242.943 58.0686 242.904 58.9489 242.904 59.8294C242.904 64.8825 242.904 69.9068 242.904 74.9598C242.904 75.1894 242.904 75.4192 242.847 75.6775C242.704 76.826 242.217 77.3427 241.097 77.4289C240.408 77.4863 239.719 77.5151 239.03 77.5151C236.504 77.5151 233.949 77.5151 231.425 77.4864C229.473 77.4864 228.899 76.8834 228.899 74.8449C228.87 68.6148 228.87 62.4134 228.87 56.212Z" fill="#CBDDE1"/>
<path d="M72.7112 75.9961C71.3704 75.9096 70.0081 75.8664 68.689 75.715C66.9158 75.542 65.5967 74.5474 64.7317 73.0121C63.3694 70.6768 62.1152 68.2767 60.8826 65.8765C60.5799 65.2711 60.4286 64.5576 60.3636 63.8872C60.2123 62.3952 60.9907 61.3573 62.1368 60.6222C63.3045 59.8654 64.5155 59.1951 65.7265 58.5247C66.3968 58.1788 67.0889 57.8544 67.8241 57.6165C69.4675 57.0543 70.7865 57.4436 71.8245 58.8707C72.5815 59.9086 73.2086 61.0547 73.8139 62.179C74.6574 63.6926 75.4574 65.2279 76.2576 66.7847C77.1225 68.4496 77.9876 70.1363 78.8092 71.8444C79.0038 72.2553 79.0903 72.7742 79.1119 73.2283C79.1984 74.4393 78.4632 75.3691 77.209 75.6285C76.4954 75.7798 75.7386 75.8448 75.0033 75.888C74.2465 75.9312 73.468 75.9096 72.7112 75.9096C72.7112 75.9384 72.7112 75.9672 72.7112 75.9961Z" fill="#CBDDE1"/>
<path d="M6.04699 75.996C4.96039 75.9311 3.54779 75.8879 2.17866 75.7149C1.24418 75.5851 0.396608 75.1525 0.0923625 74.136C-0.0380317 73.6602 -0.0162991 73.1196 0.0706299 72.6222C0.266215 71.4542 0.896456 70.4594 1.43976 69.4212C2.5481 67.28 3.67818 65.1388 4.82999 63.0193C5.54715 61.7 6.26431 60.3591 7.11187 59.1047C8.24194 57.396 9.98053 56.9202 11.7843 57.8069C13.5446 58.6938 15.2832 59.6021 16.9349 60.6619C18.6082 61.7433 19.2384 63.3221 18.4126 65.2687C17.6738 67.0204 16.761 68.6857 15.8699 70.3728C15.3049 71.4325 14.7181 72.4491 14.0662 73.444C13.1099 74.8931 11.7191 75.6717 10.0457 75.8014C8.80699 75.9095 7.58998 75.9311 6.04699 75.996Z" fill="#CBDDE1"/>
</svg>
